# xmcd CD database file
#
# Track frame offsets:
#	150
#	15052
#	28882
#	40107
#	53672
#	73982
#	90432
#	103467
#	118010
#	133582
#	145025
#	158257
#	172780
#	188677
#	200382
#	212162
#
# Disc length: 3067 seconds
#
# Revision: 0
# Processed by: cddbd v1.5.2PL0 Copyright (c) Steve Scherf et al.
# Submitted via: CDex 1.70beta2
#
DISCID=ce0bf910
DTITLE=Django Reinhardt - Django Reinhardt
DYEAR=1947
DGENRE=Jazz
TTITLE0=Nuages
TTITLE1=Swing Guitars
TTITLE2=Saint Louis Blues
TTITLE3=Viper's Dream
TTITLE4=Daphne
TTITLE5=Dinah
TTITLE6=Minor Swing
TTITLE7=Les Yeux Noirs
TTITLE8=Ol' Man River
TTITLE9=Louise
TTITLE10=Dinette
TTITLE11=Swingtime in Springtime
TTITLE12=Blues En Mineur
TTITLE13=Swing 39
TTITLE14=Belleville
TTITLE15=Crepuscule
EXTD=YEAR: 1947
EXTT0=
EXTT1=
EXTT2=
EXTT3=
EXTT4=
EXTT5=
EXTT6=
EXTT7=
EXTT8=
EXTT9=
EXTT10=
EXTT11=
EXTT12=
EXTT13=
EXTT14=
EXTT15=
PLAYORDER=
